FILE "track01.bin" BINARY
  TRACK 01 AUDIO
    PREGAP 00:03:00
    INDEX 01 00:00:00

FILE "track02.bin" BINARY
  TRACK 02 MODE1/2352
    INDEX 01 00:03:00

FILE "track03.ogg" OGG
  TRACK 03 AUDIO
    INDEX 01 00:00:00

FILE "track04.mp3" MP3
  TRACK 04 AUDIO
    INDEX 01 00:00:00

FILE "track05.wav" WAV
  TRACK 05 AUDIO
    INDEX 01 00:00:00

FILE "track06.bin" BINARY
  TRACK 06 MODE1/2048
    INDEX 01 00:00:00

